<svg width="134" height="33" viewBox="0 0 134 33" fill="none" xmlns="http://www.w3.org/2000/svg">
<path fill-rule="evenodd" clip-rule="evenodd" d="M6.21607 7.86341C2.42892 11.1608 1.85861 17.6923 5.11265 23.2826C8.30005 28.7584 14.0849 31.4898 18.7731 30.0351C18.3828 30.3749 17.9583 30.6804 17.5004 30.9469C12.5987 33.7999 5.7153 31.1139 2.12591 24.9475C-1.46348 18.7811 -0.399653 11.4694 4.50204 8.61643C5.051 8.29691 5.62481 8.04687 6.21607 7.86341Z" fill="url(#paint0_linear_3452_2281)"/>
<path fill-rule="evenodd" clip-rule="evenodd" d="M11.082 5.00115C7.29487 8.29854 6.72456 14.8301 9.9786 20.4203C13.166 25.8961 18.9509 28.6275 23.639 27.1728C23.2487 27.5126 22.8243 27.8181 22.3663 28.0847C17.4646 30.9376 10.5813 28.2516 6.99186 22.0852C3.40247 15.9188 4.4663 8.60716 9.368 5.75417C9.91695 5.43466 10.4908 5.18461 11.082 5.00115Z" fill="url(#paint1_linear_3452_2281)"/>
<path fill-rule="evenodd" clip-rule="evenodd" d="M15.9979 2.16954C12.2732 5.48597 11.7297 11.9717 14.9638 17.5277C18.5532 23.6941 25.1237 25.1133 30.0254 22.2604C30.9362 21.7302 31.8228 21.0331 32.6396 20.2097C31.2862 22.2973 29.6093 24.0138 27.9501 24.9795C23.0484 27.8325 15.5691 25.4211 11.9797 19.2547C8.39027 13.0883 9.4541 5.77663 14.3558 2.92364C14.843 2.64008 15.3951 2.38783 15.9979 2.16954Z" fill="url(#paint2_linear_3452_2281)"/>
<path fill-rule="evenodd" clip-rule="evenodd" d="M16.5313 1.97831C17.4569 1.58946 18.4582 1.36796 19.5039 1.32275C20.9076 1.26207 22.3638 1.52016 23.7895 2.0823C25.2152 2.64443 26.5824 3.4996 27.813 4.59898C29.0268 5.68324 30.0843 6.98411 30.9269 8.42917L33.0983 7.17557C32.25 5.70632 31.18 4.38427 29.9493 3.2849C28.7187 2.18552 27.3514 1.33036 25.9258 0.768222C24.5001 0.206087 23.0439 -0.0520071 21.6402 0.0086768C20.2366 0.0693605 18.913 0.447633 17.7451 1.1219C17.3154 1.36999 16.9098 1.65637 16.5313 1.97831Z" fill="url(#paint3_linear_3452_2281)"/>
<path fill-rule="evenodd" clip-rule="evenodd" d="M15.2534 4.62509C16.161 4.13338 17.1908 3.8781 18.29 3.87309C19.4468 3.86781 20.6578 4.13987 21.8538 4.67374C23.0498 5.2076 24.2073 5.99282 25.2604 6.98454C26.251 7.9175 27.1309 9.01604 27.8559 10.2241L29.5447 9.24914C28.795 7.95053 27.867 6.77171 26.814 5.77998C25.761 4.78826 24.6034 4.00305 23.4074 3.46918C22.2114 2.93532 21.0004 2.66325 19.8436 2.66853C18.6867 2.6738 17.6067 2.95631 16.6651 3.49992C16.1439 3.8008 15.6708 4.17843 15.2534 4.62509Z" fill="url(#paint4_linear_3452_2281)"/>
<path fill-rule="evenodd" clip-rule="evenodd" d="M14.4915 7.28437C15.1336 7.02574 15.8255 6.87889 16.5472 6.84947C17.5545 6.80841 18.6002 6.99693 19.6245 7.40427C20.6488 7.81161 21.6317 8.42979 22.517 9.22352C23.3952 10.0109 24.1604 10.9556 24.7696 12.0047L26.3492 11.0927C25.7376 10.0334 24.9672 9.07971 24.0818 8.28599C23.1965 7.49226 22.2136 6.87408 21.1893 6.46674C20.165 6.0594 19.1194 5.87088 18.1121 5.91194C17.1048 5.953 16.1555 6.22284 15.3185 6.70605C15.0266 6.87457 14.7504 7.0679 14.4915 7.28437Z" fill="url(#paint5_linear_3452_2281)"/>
<path d="M51.9593 27.2143C49.8439 27.2143 48.068 26.7446 46.6315 25.8051C45.195 24.8558 44.1127 23.5456 43.3847 21.8744C42.6566 20.2032 42.2925 18.2749 42.2925 16.0896C42.2925 13.9042 42.6566 11.9759 43.3847 10.3047C44.1127 8.63353 45.195 7.32823 46.6315 6.38881C48.068 5.4395 49.8439 4.96484 51.9593 4.96484C54.4289 4.96484 56.4311 5.60761 57.966 6.89313C59.5107 8.17865 60.5585 9.89927 61.1095 12.055L59.3533 12.4852C58.9007 10.6953 58.0545 9.27629 56.8148 8.22809C55.5849 7.17001 53.9664 6.64097 51.9593 6.64097C50.2178 6.64097 48.7666 7.04146 47.6056 7.84244C46.4544 8.64342 45.5837 9.75589 44.9933 11.1799C44.4128 12.6038 44.1177 14.2404 44.1078 16.0896C44.0881 17.9387 44.3686 19.5753 44.9491 20.9993C45.5394 22.4133 46.42 23.5258 47.5908 24.3367C48.7616 25.1377 50.2178 25.5382 51.9593 25.5382C53.9664 25.5382 55.5849 25.0091 56.8148 23.951C58.0545 22.8929 58.9007 21.4739 59.3533 19.694L61.1095 20.1241C60.5585 22.2798 59.5107 24.0005 57.966 25.286C56.4311 26.5715 54.4289 27.2143 51.9593 27.2143Z" fill="white"/>
<path d="M76.0164 26.7693V18.4332C76.0164 17.4245 75.9131 16.5247 75.7065 15.7336C75.5097 14.9425 75.2047 14.2701 74.7915 13.7163C74.3881 13.1625 73.8764 12.7423 73.2566 12.4555C72.6466 12.1687 71.9234 12.0253 71.0871 12.0253C70.2213 12.0253 69.4686 12.1786 68.8291 12.4852C68.1994 12.7818 67.6779 13.2021 67.2647 13.746C66.8613 14.2898 66.5563 14.9375 66.3497 15.6891C66.1529 16.4307 66.0545 17.2416 66.0545 18.1217L64.7115 17.9585C64.7115 16.228 65.0017 14.804 65.5822 13.6866C66.1726 12.5593 66.9646 11.7287 67.9583 11.1947C68.9521 10.6508 70.0688 10.3789 71.3085 10.3789C72.1842 10.3789 72.9663 10.5074 73.6551 10.7645C74.3536 11.0216 74.9587 11.3875 75.4704 11.8622C75.982 12.3269 76.4051 12.8807 76.7396 13.5235C77.0741 14.1563 77.3201 14.8535 77.4775 15.6149C77.6448 16.3763 77.7284 17.1724 77.7284 18.003V26.7693H76.0164ZM64.3425 26.7693V5.40983H65.8922V17.7509H66.0545V26.7693H64.3425Z" fill="white"/>
<path d="M86.1557 27.2143C84.9258 27.2143 83.9026 26.9967 83.0859 26.5616C82.2791 26.1265 81.674 25.553 81.2706 24.841C80.8672 24.1191 80.6655 23.3379 80.6655 22.4974C80.6655 21.5876 80.8525 20.8262 81.2264 20.2131C81.6101 19.6 82.1168 19.1056 82.7465 18.7298C83.386 18.3541 84.0895 18.0722 84.8569 17.8843C85.7326 17.6866 86.6771 17.5185 87.6905 17.38C88.704 17.2317 89.6682 17.1031 90.5832 16.9944C91.508 16.8856 92.2607 16.7917 92.8412 16.7125L92.2214 17.0834C92.2607 15.3529 91.936 14.0673 91.2473 13.2268C90.5684 12.3764 89.3681 11.9512 87.6463 11.9512C86.4361 11.9512 85.4374 12.228 84.6503 12.7818C83.873 13.3257 83.327 14.1712 83.0121 15.3182L81.2706 14.8288C81.6347 13.3751 82.3677 12.2577 83.4696 11.4765C84.5716 10.6953 85.9835 10.3047 87.7053 10.3047C89.1713 10.3047 90.4012 10.5915 91.3949 11.165C92.3985 11.7386 93.097 12.5445 93.4906 13.5828C93.6579 14.008 93.771 14.5074 93.83 15.0809C93.8891 15.6446 93.9186 16.2132 93.9186 16.7867V26.7693H92.369V22.5567L92.9445 22.7051C92.4624 24.1488 91.6212 25.2613 90.4208 26.0425C89.2205 26.8237 87.7988 27.2143 86.1557 27.2143ZM86.2442 25.642C87.3265 25.642 88.276 25.4492 89.0926 25.0635C89.9092 24.668 90.5684 24.1191 91.0702 23.417C91.5818 22.7051 91.9065 21.8695 92.0443 20.9103C92.1427 20.3763 92.1968 19.7978 92.2066 19.1748C92.2165 18.5518 92.2214 18.092 92.2214 17.7953L92.9593 18.27C92.3198 18.3491 91.5523 18.4332 90.657 18.5222C89.7715 18.6112 88.8663 18.7199 87.9414 18.8485C87.0166 18.977 86.1803 19.1402 85.4325 19.338C84.9701 19.4665 84.5027 19.6544 84.0305 19.9016C83.568 20.139 83.1794 20.4702 82.8645 20.8954C82.5595 21.3206 82.407 21.8596 82.407 22.5122C82.407 22.9968 82.5251 23.4813 82.7612 23.9659C83.0072 24.4504 83.4106 24.8509 83.9714 25.1673C84.5322 25.4838 85.2898 25.642 86.2442 25.642Z" fill="white"/>
<path d="M97.7507 26.7693V5.40983H99.4627V18.4628L107.004 10.7497H109.38L101.485 18.7595L110.502 26.7693H107.86L99.4627 19.0562V26.7693H97.7507Z" fill="white"/>
<path d="M111.99 26.7693V10.7497H113.54V14.5914L113.156 14.0871C113.333 13.6322 113.555 13.212 113.82 12.8263C114.096 12.4308 114.376 12.1094 114.662 11.8622C115.085 11.4666 115.581 11.17 116.152 10.9722C116.723 10.7645 117.298 10.6459 117.879 10.6162C118.459 10.5766 118.986 10.6211 119.458 10.7497V12.3665C118.828 12.2182 118.159 12.1885 117.451 12.2775C116.742 12.3665 116.078 12.673 115.458 13.1971C114.917 13.6718 114.524 14.2256 114.278 14.8584C114.032 15.4814 113.874 16.139 113.806 16.8312C113.737 17.5135 113.702 18.181 113.702 18.8337V26.7693H111.99Z" fill="white"/>
<path d="M126.194 27.2143C124.964 27.2143 123.94 26.9967 123.124 26.5616C122.317 26.1265 121.712 25.553 121.309 24.841C120.905 24.1191 120.703 23.3379 120.703 22.4974C120.703 21.5876 120.89 20.8262 121.264 20.2131C121.648 19.6 122.155 19.1056 122.784 18.7298C123.424 18.3541 124.127 18.0722 124.895 17.8843C125.771 17.6866 126.715 17.5185 127.728 17.38C128.742 17.2317 129.706 17.1031 130.621 16.9944C131.546 16.8856 132.299 16.7917 132.879 16.7125L132.259 17.0834C132.299 15.3529 131.974 14.0673 131.285 13.2268C130.606 12.3764 129.406 11.9512 127.684 11.9512C126.474 11.9512 125.475 12.228 124.688 12.7818C123.911 13.3257 123.365 14.1712 123.05 15.3182L121.309 14.8288C121.673 13.3751 122.406 12.2577 123.508 11.4765C124.61 10.6953 126.021 10.3047 127.743 10.3047C129.209 10.3047 130.439 10.5915 131.433 11.165C132.436 11.7386 133.135 12.5445 133.529 13.5828C133.696 14.008 133.809 14.5074 133.868 15.0809C133.927 15.6446 133.957 16.2132 133.957 16.7867V26.7693H132.407V22.5567L132.982 22.7051C132.5 24.1488 131.659 25.2613 130.459 26.0425C129.258 26.8237 127.837 27.2143 126.194 27.2143ZM126.282 25.642C127.364 25.642 128.314 25.4492 129.131 25.0635C129.947 24.668 130.606 24.1191 131.108 23.417C131.62 22.7051 131.944 21.8695 132.082 20.9103C132.181 20.3763 132.235 19.7978 132.245 19.1748C132.254 18.5518 132.259 18.092 132.259 17.7953L132.997 18.27C132.358 18.3491 131.59 18.4332 130.695 18.5222C129.809 18.6112 128.904 18.7199 127.979 18.8485C127.055 18.977 126.218 19.1402 125.47 19.338C125.008 19.4665 124.541 19.6544 124.068 19.9016C123.606 20.139 123.217 20.4702 122.902 20.8954C122.597 21.3206 122.445 21.8596 122.445 22.5122C122.445 22.9968 122.563 23.4813 122.799 23.9659C123.045 24.4504 123.449 24.8509 124.009 25.1673C124.57 25.4838 125.328 25.642 126.282 25.642Z" fill="white"/>
<defs>
<linearGradient id="paint0_linear_3452_2281" x1="4.45704" y1="20.6632" x2="14.9878" y2="41.3114" gradientUnits="userSpaceOnUse">
<stop stop-color="white"/>
<stop offset="1" stop-color="white" stop-opacity="0"/>
</linearGradient>
<linearGradient id="paint1_linear_3452_2281" x1="4.63837" y1="19.9915" x2="14.33" y2="40.1607" gradientUnits="userSpaceOnUse">
<stop stop-color="white"/>
<stop offset="1" stop-color="white" stop-opacity="0"/>
</linearGradient>
<linearGradient id="paint2_linear_3452_2281" x1="5.05641" y1="19.7908" x2="16.6867" y2="40.1682" gradientUnits="userSpaceOnUse">
<stop stop-color="white"/>
<stop offset="1" stop-color="white" stop-opacity="0"/>
</linearGradient>
<linearGradient id="paint3_linear_3452_2281" x1="0.0557771" y1="0.453562" x2="25.4469" y2="35.3538" gradientUnits="userSpaceOnUse">
<stop stop-color="white" stop-opacity="0"/>
<stop offset="0.6" stop-color="white"/>
</linearGradient>
<linearGradient id="paint4_linear_3452_2281" x1="-0.168976" y1="0.776342" x2="24.3626" y2="35.8398" gradientUnits="userSpaceOnUse">
<stop stop-color="white" stop-opacity="0"/>
<stop offset="0.6" stop-color="white"/>
</linearGradient>
<linearGradient id="paint5_linear_3452_2281" x1="14.4971" y1="7.30509" x2="25.5171" y2="11.5272" gradientUnits="userSpaceOnUse">
<stop stop-color="white" stop-opacity="0"/>
<stop offset="0.6" stop-color="white"/>
</linearGradient>
</defs>
</svg>
